<svg width="16" height="16" viewBox="0 0 16 16" fill="none" xmlns="http://www.w3.org/2000/svg">
<path d="M15.0397 0H9.99617C9.59177 0 9.26404 0.327736 9.26404 0.732132C9.26404 1.13653 9.59177 1.46426 9.99617 1.46426H13.3535L6.16865 8.64914C5.88259 8.93503 5.88259 9.39868 6.16865 9.68457C6.3116 9.82752 6.49902 9.89908 6.68628 9.89908C6.87353 9.89908 7.06096 9.82752 7.2039 9.68457L14.3076 2.58075V5.77547C14.3076 6.17987 14.6353 6.5076 15.0397 6.5076C15.4441 6.5076 15.7718 6.17987 15.7718 5.77547V0.732132C15.7718 0.327736 15.4441 0 15.0397 0Z" fill="white"/>
<path d="M12.5071 7.37328C12.1027 7.37328 11.7749 7.70101 11.7749 8.10541V13.8816C11.7749 14.1462 11.5515 14.3697 11.2869 14.3697H1.95235C1.68774 14.3697 1.46426 14.1462 1.46426 13.8816V4.54708C1.46426 4.28246 1.68774 4.05899 1.95235 4.05899H7.74892C8.15332 4.05899 8.48106 3.73125 8.48106 3.32686C8.48106 2.92246 8.15332 2.59473 7.74892 2.59473H1.95235C0.87578 2.59473 0 3.47051 0 4.54708V13.8816C0 14.9582 0.87578 15.8339 1.95235 15.8339H11.2869C12.3634 15.8339 13.2392 14.9582 13.2392 13.8816V8.10541C13.2392 7.70119 12.9115 7.37328 12.5071 7.37328Z" fill="white"/>
</svg>
