<svg width="158" height="13" viewBox="0 0 158 13" fill="none" xmlns="http://www.w3.org/2000/svg">
<path d="M0.162 12.932L4.88 0.359999H6.238L1.52 12.932H0.162ZM16.8391 11L16.1391 1.228H17.5111L17.8611 6.912L18.0151 9.418H18.1271L19.2331 3.594H20.7871L21.8931 9.418H22.0051L22.1591 6.912L22.5231 1.228H23.8391L23.1391 11H21.0391L20.0451 5.344H19.9331L18.9391 11H16.8391ZM33.6981 11V9.81H35.9941V2.418H33.6981V1.228H39.8581V2.418H37.5621V9.81H39.8581V11H33.6981ZM50.8792 11V1.228H52.4472V9.684H56.8992V11H50.8792ZM67.6683 11V1.228H69.2363V9.684H73.6883V11H67.6683ZM87.0613 11.168C86.212 11.168 85.498 11.0187 84.9193 10.72C84.3406 10.4213 83.8646 10.0247 83.4913 9.53L84.4993 8.564C84.8726 9.012 85.2693 9.34333 85.6893 9.558C86.1093 9.76333 86.5853 9.866 87.1173 9.866C87.7333 9.866 88.2046 9.726 88.5313 9.446C88.8673 9.166 89.0353 8.76467 89.0353 8.242C89.0353 7.822 88.914 7.5 88.6713 7.276C88.4286 7.04267 88.0133 6.87467 87.4253 6.772L86.3613 6.604C85.8946 6.52933 85.5026 6.408 85.1853 6.24C84.868 6.06267 84.6113 5.85733 84.4153 5.624C84.2193 5.38133 84.0746 5.11533 83.9813 4.826C83.8973 4.52733 83.8553 4.21467 83.8553 3.888C83.8553 2.964 84.154 2.264 84.7513 1.788C85.3486 1.30267 86.17 1.06 87.2153 1.06C87.99 1.06 88.648 1.186 89.1893 1.438C89.74 1.68067 90.1833 2.026 90.5193 2.474L89.5393 3.454C89.2686 3.12733 88.9466 2.866 88.5733 2.67C88.2093 2.46467 87.7566 2.362 87.2153 2.362C86.6366 2.362 86.1933 2.488 85.8853 2.74C85.5866 2.98267 85.4373 3.342 85.4373 3.818C85.4373 4.21933 85.554 4.53667 85.7873 4.77C86.03 4.994 86.4546 5.15733 87.0613 5.26L88.0973 5.442C88.9746 5.60067 89.614 5.92267 90.0153 6.408C90.4166 6.884 90.6173 7.46733 90.6173 8.158C90.6173 8.606 90.538 9.01667 90.3793 9.39C90.23 9.76333 90.0013 10.0807 89.6933 10.342C89.3946 10.6033 89.0213 10.8087 88.5733 10.958C88.1346 11.098 87.6306 11.168 87.0613 11.168ZM102.24 3.482H102.114V11H100.742V1.228H102.758L105.628 8.746H105.754V1.228H107.126V11H105.11L102.24 3.482ZM122.991 11L122.249 8.396H119.141L118.399 11H116.803L119.659 1.228H121.801L124.657 11H122.991ZM120.751 2.81H120.639L119.435 7.094H121.955L120.751 2.81ZM137.149 6.506L135.973 7.976V11H134.405V1.228H135.973V5.904H136.043L137.233 4.28L139.627 1.228H141.433L138.213 5.344L141.559 11H139.767L137.149 6.506ZM151.306 11V1.228H157.424V2.544H152.874V5.386H157.256V6.702H152.874V9.684H157.424V11H151.306Z" fill="white"/>
</svg>
